<?xml version="1.0" standalone="no"?>
<!DOCTYPE svg PUBLIC "-//W3C//DTD SVG 20010904//EN"
 "http://www.w3.org/TR/2001/REC-SVG-20010904/DTD/svg10.dtd">
<svg version="1.0" xmlns="http://www.w3.org/2000/svg"
 width="96.000000pt" height="96.000000pt" viewBox="0 0 96.000000 96.000000"
 preserveAspectRatio="xMidYMid meet">
<metadata>
Created by potrace 1.14, written by Peter Selinger 2001-2017
</metadata>
<g transform="translate(0.000000,96.000000) scale(0.100000,-0.100000)"
fill="#000000" stroke="none">
<path d="M300 801 l-175 -79 1 -123 c0 -100 5 -136 22 -186 46 -130 139 -238
257 -298 l73 -37 57 26 c129 59 230 173 280 316 10 27 18 96 22 172 l6 128
-37 15 c-20 9 -67 30 -104 47 -74 34 -223 98 -225 97 -1 0 -81 -35 -177 -78z"/>
</g>
</svg>
